<?xml version="1.0" encoding="utf-8"?>
<!-- Generator: Adobe Illustrator 16.0.0, SVG Export Plug-In . SVG Version: 6.00 Build 0)  -->
<!DOCTYPE svg PUBLIC "-//W3C//DTD SVG 1.1//EN" "http://www.w3.org/Graphics/SVG/1.1/DTD/svg11.dtd">
<svg version="1.1" xmlns="http://www.w3.org/2000/svg" xmlns:xlink="http://www.w3.org/1999/xlink" x="0px" y="0px" width="400px"
	 height="800px" viewBox="0 0 400 800" enable-background="new 0 0 400 800" xml:space="preserve">
<g id="head">
	<path fill="#472624" stroke="#040000" stroke-width="3" stroke-miterlimit="10" d="M262.75,468.166
		c22.405,4.663,41.768-31.896,62.82-68.166c-6.218-52.75-76.183-73.646-106.318-71.954c-51.726,2.904-83.339,44.04-84.608,88.193
		c13.206,22.077,16.681,41.046,36.892,44.154L262.75,468.166z"/>
	<rect x="164.25" y="431.75" fill="#CA9E8C" width="57" height="76.375"/>
	<g>/
		<path id="face" fill="#CA9E8C" stroke="#331B1E" stroke-width="3" stroke-miterlimit="10" d="M104.538,355.998
			c-23.763-245,233.129-140.667,261.129-21.667c26.667,32-17.666,86-55.224,67.746l0.332-1.604
			c-29.441,54.519-184.441,80.519-206.237-46.118"/>
		<g>
			<radialGradient id="SVGID_1_" cx="143.1099" cy="361.9976" r="19.7594" gradientUnits="userSpaceOnUse">
				<stop  offset="0.0018" style="stop-color:#B96D61"/>
				<stop  offset="0.2402" style="stop-color:#BA7265"/>
				<stop  offset="0.5533" style="stop-color:#BD7F70"/>
				<stop  offset="0.9068" style="stop-color:#C39583"/>
				<stop  offset="1" style="stop-color:#C59B89"/>
			</radialGradient>
			<path fill="url(#SVGID_1_)" d="M161.301,364.666c-1.687,11.497-11.197,19.621-21.244,18.147
				c-10.046-1.474-16.824-11.988-15.138-23.484c1.687-11.497,11.197-19.622,21.243-18.148
				C156.209,342.655,162.987,353.169,161.301,364.666z"/>
		</g>
		<g>
			
				<radialGradient id="SVGID_2_" cx="249.0059" cy="370.8818" r="19.7591" gradientTransform="matrix(0.94 -0.3412 0.3412 0.94 -111.3099 105.5424)" gradientUnits="userSpaceOnUse">
				<stop  offset="0.0018" style="stop-color:#B96D61"/>
				<stop  offset="0.2402" style="stop-color:#BA7265"/>
				<stop  offset="0.5533" style="stop-color:#BD7F70"/>
				<stop  offset="0.9068" style="stop-color:#C39583"/>
				<stop  offset="1" style="stop-color:#C59B89"/>
			</radialGradient>
			<path fill="url(#SVGID_2_)" d="M267.311,365.503c2.338,11.382-3.83,22.264-13.776,24.307
				c-9.947,2.043-19.905-5.527-22.242-16.909c-2.338-11.383,3.83-22.265,13.775-24.308
				C255.015,346.551,264.974,354.121,267.311,365.503z"/>
		</g>
		
			<radialGradient id="SVGID_3_" cx="334.9219" cy="375.9365" r="15.0975" gradientTransform="matrix(0.8501 0.5265 -1.0376 1.6753 443.6634 -435.6476)" gradientUnits="userSpaceOnUse">
			<stop  offset="0.6283" style="stop-color:#C95432"/>
			<stop  offset="0.6892" style="stop-color:#C95836"/>
			<stop  offset="0.7692" style="stop-color:#C86441"/>
			<stop  offset="0.8599" style="stop-color:#C77756"/>
			<stop  offset="0.9578" style="stop-color:#C69078"/>
			<stop  offset="1" style="stop-color:#C59B89"/>
		</radialGradient>
		<path fill="url(#SVGID_3_)" d="M350.771,378.227c-8.901,14.372-21.692,22.565-28.571,18.305
			c-6.879-4.261-5.241-19.364,3.66-33.733s21.689-22.563,28.569-18.303C361.308,348.756,359.673,363.858,350.771,378.227z"/>
		
			<line fill="none" stroke="#781A1D" stroke-width="3" stroke-miterlimit="10" x1="334.896" y1="357.803" x2="340.596" y2="369.202"/>
		<path fill="none" stroke="#781A1D" stroke-width="3" stroke-miterlimit="10" d="M322.175,376.974
			c3.785-14.508,10.506-23.092,21.012-29.016"/>
	</g>
	<g id="hair">
		<g>
			
				<ellipse transform="matrix(0.7616 -0.648 0.648 0.7616 3.7729 163.3419)" fill="#472624" stroke="#331B1E" stroke-width="3" stroke-miterlimit="10" cx="223.914" cy="76.542" rx="34.423" ry="67.349"/>
			
				<ellipse transform="matrix(0.4572 0.8893 -0.8893 0.4572 261.7568 -233.4922)" fill="#472624" stroke="#331B1E" stroke-width="3" stroke-miterlimit="10" cx="322.173" cy="97.705" rx="37.563" ry="69.212"/>
			
				<radialGradient id="SVGID_4_" cx="246" cy="121.3301" r="223.4532" gradientTransform="matrix(-0.0222 0.9998 -1.9995 -0.0443 494.0504 -119.2337)" gradientUnits="userSpaceOnUse">
				<stop  offset="0.0053" style="stop-color:#321A1D"/>
				<stop  offset="0.0673" style="stop-color:#351E1F"/>
				<stop  offset="0.1487" style="stop-color:#3F2725"/>
				<stop  offset="0.2405" style="stop-color:#4E372D"/>
				<stop  offset="0.2903" style="stop-color:#594132"/>
				<stop  offset="1" style="stop-color:#331B1E"/>
			</radialGradient>
			<path fill="url(#SVGID_4_)" stroke="#270707" stroke-width="3" stroke-miterlimit="10" d="M96.419,224.849
				c11.29-57.526,37.634-95.161,93.548-106.989c35.209,0,63.699,9.454,63.699,21.136c-36,15.333-48.334,44.999-51.667,79.999
				c-8.333,17.667-26.667,19.667-58.807,35.333c-17.057,0-28.527,20.208-28.527,32c-4.285,32-4.285,48.333-8.57,67.553
				C100.748,353.882,78.14,308.183,96.419,224.849"/>
			
				<radialGradient id="SVGID_5_" cx="252.334" cy="131.3311" r="184.3972" gradientTransform="matrix(0.5421 0.8403 -1.6806 1.0843 336.251 -223.1005)" gradientUnits="userSpaceOnUse">
				<stop  offset="0.0053" style="stop-color:#321A1D"/>
				<stop  offset="0.0673" style="stop-color:#351E1F"/>
				<stop  offset="0.1487" style="stop-color:#3F2725"/>
				<stop  offset="0.2405" style="stop-color:#4E372D"/>
				<stop  offset="0.2903" style="stop-color:#594132"/>
				<stop  offset="1" style="stop-color:#331B1E"/>
			</radialGradient>
			<radialGradient id="SVGID_6_" cx="295.1113" cy="235.8281" r="107.8226" gradientUnits="userSpaceOnUse">
				<stop  offset="0.0053" style="stop-color:#321A1D"/>
				<stop  offset="0.0673" style="stop-color:#351E1F"/>
				<stop  offset="0.1487" style="stop-color:#3F2725"/>
				<stop  offset="0.2405" style="stop-color:#4E372D"/>
				<stop  offset="0.2903" style="stop-color:#594132"/>
				<stop  offset="1" style="stop-color:#331B1E"/>
			</radialGradient>
			<path fill="url(#SVGID_5_)" stroke="url(#SVGID_6_)" stroke-width="3" stroke-miterlimit="10" d="M365.667,334.331
				c-24-11.667-40.271-2.072-55.334,19.551c-8.844,0-16-13.962-16-31.217c-3.333-17-16.666-36-38.666-49.333
				c-26.833-16-37-26.984-53.667-54.335c6-66.665,34.333-83.331,79.667-101.135C391.307,150.998,410.667,270.331,365.667,334.331z"
				/>
		</g>
	</g>
	<g>
		<path fill="#DE8A66" stroke="#AE223D" stroke-width="6" stroke-miterlimit="10" d="M268.527,121.247
			c-5.074,3.692-10.609,4.732-12.36,2.325c-1.753-2.409,0.939-7.355,6.016-11.048c5.074-3.691,10.608-4.731,12.36-2.324
			C276.298,112.608,273.604,117.554,268.527,121.247z"/>
		<path fill="#DE8A66" stroke="#AE223D" stroke-width="6" stroke-miterlimit="10" d="M230.886,145.21
			c-5.074,3.692-10.609,4.732-12.36,2.325c-1.753-2.409,0.939-7.355,6.016-11.048c5.074-3.691,10.608-4.731,12.36-2.324
			C238.656,136.571,235.963,141.518,230.886,145.21z"/>
		
			<ellipse transform="matrix(0.9436 -0.3312 0.3312 0.9436 -22.706 84.5616)" fill="#DE8A66" stroke="#AE223D" stroke-width="6" stroke-miterlimit="10" cx="236.757" cy="108.902" rx="5.394" ry="11.363"/>
		
			<ellipse transform="matrix(0.9436 -0.3312 0.3312 0.9436 -35.8222 93.2298)" fill="#DE8A66" stroke="#AE223D" stroke-width="6" stroke-miterlimit="10" cx="255.632" cy="151.72" rx="5.394" ry="11.363"/>
		
			<ellipse transform="matrix(0.9848 0.1736 -0.1736 0.9848 30.1697 -39.4493)" fill="#DE8A66" stroke="#AE223D" stroke-width="6" stroke-miterlimit="10" cx="240.569" cy="152.719" rx="5.394" ry="11.364"/>
		
			<ellipse transform="matrix(0.9848 0.1736 -0.1736 0.9848 22.472 -42.2935)" fill="#DE8A66" stroke="#AE223D" stroke-width="6" stroke-miterlimit="10" cx="252.977" cy="107.298" rx="5.394" ry="11.364"/>
		
			<ellipse transform="matrix(0.2851 -0.9585 0.9585 0.2851 59.9297 354.5436)" fill="#DE8A66" stroke="#AE223D" stroke-width="6" stroke-miterlimit="10" cx="267.63" cy="137.098" rx="5.394" ry="11.363"/>
		
			<ellipse transform="matrix(0.2851 -0.9585 0.9585 0.2851 45.0306 306.1096)" fill="#DE8A66" stroke="#AE223D" stroke-width="6" stroke-miterlimit="10" cx="227.713" cy="122.869" rx="5.394" ry="11.363"/>
		<radialGradient id="SVGID_7_" cx="243.167" cy="125.311" r="3.2828" gradientUnits="userSpaceOnUse">
			<stop  offset="0.1762" style="stop-color:#FFFFFF"/>
			<stop  offset="0.2555" style="stop-color:#FCF7F2"/>
			<stop  offset="0.4084" style="stop-color:#F0DFCA"/>
			<stop  offset="0.6196" style="stop-color:#DDB78B"/>
			<stop  offset="0.8783" style="stop-color:#C5843F"/>
			<stop  offset="0.9894" style="stop-color:#BA6E22"/>
			<stop  offset="1" style="stop-color:#B86A1E;stop-opacity:0.95"/>
		</radialGradient>
		<circle fill="url(#SVGID_7_)" stroke="#AB2B24" stroke-width="3" stroke-miterlimit="10" cx="247.31" cy="129.182" r="10.667"/>
	</g>
	<path fill="#4E1F15" stroke="#2F0606" stroke-miterlimit="10" d="M270.13,306.598c-20.63-21.841-43.713-16.508-46.216-5.181
		c0,1.57,1.119,2.84,2.503,2.84C228.413,295.347,252.575,291.485,270.13,306.598z"/>
	<path fill="#4E1F15" stroke="#2F0606" stroke-miterlimit="10" d="M132.333,293.91c13.417-13.994,40.793-8.994,43.296,2.333
		c0,1.57-1.119,2.84-2.503,2.84C170.167,291.083,151.417,284.5,132.333,293.91z"/>
	<g id="left_eye">
		<path fill="none" stroke="#2F0606" stroke-width="3" stroke-miterlimit="10" d="M262.75,324.25c0,0.921,3.176,2.083,10.417,1.667"
			/>
		<path fill="#D0CAC2" d="M220.389,357.803c-5.457-33.161,9.756-46.708,23.872-45.63c16.246,1.239,31.597,20.123,11.739,52.492
			C255.433,365.59,233.625,366.625,220.389,357.803"/>
		<path fill="none" stroke="#2F0606" stroke-width="4" stroke-miterlimit="10" d="M222.834,325.417
			c16.333-22.667,44.916-15.833,43,24.667"/>
		<path fill="none" stroke="#2F0606" stroke-width="2" stroke-miterlimit="10" d="M265.5,332.083c0,0.276,1.416,0.5,3.167,0.5"/>
		<radialGradient id="SVGID_8_" cx="245" cy="334.9429" r="6.2566" gradientUnits="userSpaceOnUse">
			<stop  offset="0.5744" style="stop-color:#000000;stop-opacity:0"/>
			<stop  offset="0.6336" style="stop-color:#0F0C0B;stop-opacity:0.132"/>
			<stop  offset="0.7476" style="stop-color:#261A18;stop-opacity:0.3866"/>
			<stop  offset="0.9036" style="stop-color:#261A16;stop-opacity:0.7348"/>
			<stop  offset="1" style="stop-color:#1E1412;stop-opacity:0.95"/>
		</radialGradient>
		<path fill="url(#SVGID_8_)" d="M225.265,360.475c-0.853-3.167-1.327-6.686-1.327-10.392c0-13.876,6.655-25.125,14.865-25.125
			c8.209,0,14.864,11.249,14.864,25.125c0,5.701-3.016,15.174-3.016,15.174s-5.637,0.087-12.068-0.944
			C233.948,363.569,228.896,362.029,225.265,360.475"/>
	</g>
	<g id="right_eye">
		<path fill="none" stroke="#2F0606" stroke-width="3" stroke-miterlimit="10" d="M135.913,310.205
			c-0.181,0.903-3.522,1.42-10.542-0.408"/>
		<path fill="#D0CAC2" d="M170.874,351.412c11.852-31.447-0.41-47.713-14.463-49.425c-16.174-1.97-34.929,13.538-21.802,49.172
			C134.983,352.178,156.165,357.468,170.874,351.412"/>
		<path fill="none" stroke="#2F0606" stroke-width="4" stroke-miterlimit="10" d="M174.825,319.175
			c-11.572-25.429-40.94-24.332-47.001,15.758"/>
		<path fill="none" stroke="#2F0606" stroke-width="2" stroke-miterlimit="10" d="M131.68,317.347
			c-0.054,0.271-1.486,0.213-3.204-0.13"/>
		<radialGradient id="SVGID_9_" cx="164.3335" cy="328.2764" r="6.3005" gradientUnits="userSpaceOnUse">
			<stop  offset="0.5744" style="stop-color:#000000;stop-opacity:0"/>
			<stop  offset="0.6336" style="stop-color:#0F0C0B;stop-opacity:0.132"/>
			<stop  offset="0.7476" style="stop-color:#261A18;stop-opacity:0.3866"/>
			<stop  offset="0.9036" style="stop-color:#261A16;stop-opacity:0.7348"/>
			<stop  offset="1" style="stop-color:#1E1412;stop-opacity:0.95"/>
		</radialGradient>
		<path fill="url(#SVGID_9_)" d="M165.569,353.076c1.457-2.938,2.612-6.296,3.338-9.93c2.721-13.607-1.6-25.942-9.651-27.552
			c-8.05-1.609-16.781,8.116-19.501,21.723c-1.118,5.589-0.018,15.471-0.018,15.471s5.511,1.19,12.02,1.44
			C156.447,354.408,161.703,353.889,165.569,353.076"/>
	</g>
	<path fill="none" stroke="#2F0606" stroke-width="2" stroke-miterlimit="10" d="M179.433,366.871c5.934,0,8.492-5.816,8.808-6.736"
		/>
	<path fill="none" stroke="#2F0606" stroke-width="2" stroke-miterlimit="10" d="M181.75,388.25c5,5.75,14.5,4.031,19.5,1.125"/>
	<ellipse fill="none" stroke="#2F0606" stroke-width="2" stroke-miterlimit="10" cx="130.078" cy="345.313" rx="1.602" ry="1.938"/>
	<ellipse fill="none" stroke="#2F0606" stroke-width="2" stroke-miterlimit="10" cx="134.644" cy="351.229" rx="1.269" ry="1.146"/>
	<ellipse fill="none" stroke="#2F0606" stroke-width="2" stroke-miterlimit="10" cx="262.563" cy="361.001" rx="1.938" ry="2.501"/>
	<ellipse fill="none" stroke="#2F0606" stroke-width="2" stroke-miterlimit="10" cx="258.313" cy="365.875" rx="1.063" ry="1.625"/>
	<g id="花钿">
		<path fill="#A02125" stroke="#891E22" stroke-miterlimit="10" d="M198.658,302.625c1.823-2.676,2.726-5.309,2.966-8.035
			c0.333-3.769-0.601-7.718-2.124-12.215c-1.408,5.325-2.036,9.062-2.12,11.996c-0.088,3.058,0.416,5.245,1.245,7.45"/>
		<path fill="#A02125" stroke="#891E22" stroke-miterlimit="10" d="M196.391,300.778c0.192-2.744-0.838-4.519-1.891-6.467
			c-1.453-2.693-3.042-4.78-6.259-6.987c1.331,4.296,2.82,8.509,4.086,10.513C193.648,299.928,194.751,299.739,196.391,300.778"/>
		<path fill="#A02125" stroke="#891E22" stroke-miterlimit="10" d="M203.218,301.617c2.395-0.707,3.403-2.123,4.546-3.613
			c1.58-2.058,2.588-4.76,2.933-8.129c-2.984,2.463-5.196,4.177-6.914,7.438C202.807,299.166,203.321,299.927,203.218,301.617"/>
	</g>
</g>
<g id="body">
	<g id="裙">
		<path fill="#B86A1E" stroke="#470C09" stroke-width="3" stroke-miterlimit="10" d="M92.222,753.657c0,3.15,10.384,5.7,22.985,5.7
			c10.353-1.024,14.959,1.81,20.706,5.699c15.254,11.443,33.421,19.11,71.754,16.11c15.667-1.5,62.5,11.666,87.333-3.834
			c10.5-8,16-13.166,35.833-9.166c21.334,2,22.667-16.5,18.334-22c-6.5-3.334-8.171-5.542-5.5-11.084
			c0.75-2.095-1.583-13.083-8.416-18.833C291.333,683.834,286.333,611.667,276,562.167c-91.505,0-165.167-15.21-165.167-15.21
			c-16.063,41.451-30.521,104.568-18.612,205.102"/>
		<path fill="#AA3B23" d="M139.253,605.472c-19.893,84.456-19.893,124.87-14.592,151.813v2.379
			c9.982,2.713,11.253,6.798,22.506,13.334c-18.667-101.465-0.299-199.518-0.299-199.518l1.799-12.482
			c0,0-17.676-13.044-37.667-13.044c-3,4.71-5.595,12.332-6,18.044c11.667-9.667,41.868,2.769,34.5,38"/>
		<path fill="#AA3B23" d="M274.5,563.833c3.75,17.5,4.834,27.75,10.167,54.165c-12.879-63.334-83.914-23.424,8.142,32.243
			l8.524,23.305c-24.167-13.069-45.499-28.548-64.166-52.215c-26.333-24.333-33.556-6.611-2.167,26.333
			c41.873,43,59.364,80.667,90.57,118.798c-7.758-2.798-15.516,0-15.516,0c-9.721-10.798-19.388-24.565-31.381-49.131
			c-31.674-32.726-66.34-87-22.84,24c-34.584-58.667-62.334-141.333-95.834-184"/>
		<path fill="#AA3B23" d="M305.916,682.968c7.917,15.333,11.261,18.239,22.667,28.667c6.5,5.916,15.646,16.513,12.417,26.853
			c-1.235,3.957,5.166,8.583,5.166,8.583c-10.166-7.667-36.999-23.019-39.666-60.186"/>
		<path fill="none" stroke="#963423" stroke-width="2" stroke-miterlimit="10" d="M147.167,571.793
			c-14.834,93.264-12.501,112.7,0,199.481"/>
		<path fill="none" stroke="#963423" stroke-width="2" stroke-miterlimit="10" d="M183.891,580.63
			c2.776,77.344,16.943,124.677,39.442,198.677"/>
		<path fill="none" stroke="#963423" stroke-width="2" stroke-miterlimit="10" d="M237.167,580.63
			c16.666,81,31,121.01,72.888,185.832"/>
		<path fill="none" stroke="#963423" stroke-width="2" stroke-miterlimit="10" d="M342.333,744.605
			c-10.166-7.667-34.166-22.833-36.833-60"/>
	</g>
	<g id="袖_1_">
		<path fill="#C9CBB7" stroke="#100E06" stroke-width="3" stroke-miterlimit="10" d="M255.834,536.25
			c-6.533-15.417-13.512-48.5,16.351-67.681c24.888,36.098,45.762,61.597,78.975,82.432c7.524,37.742-28.984,60.062-45.659,44.626
			c-21.833-14.997-33.832-33.242-48.871-58.295"/>
		<path fill="#CAAA87" stroke="#CAAA87" stroke-miterlimit="10" d="M291.329,528.45c-5.829,2.801-7.496,6.113-8.746,9.801
			c-4.996-6.482-8.632-14.358-12.833-25.251c-6.33-15.5,3.875-19.417,1.5-38.834c-54.916,50.084,0.164,84.584,0.366,84.584
			c15.634,20.427,17.681,22.786,37.051,37.751c6.5,6.521,46.167-1.357,40.333-44.857c-18.479-8.463-32.75-4.687-38.945,7.106
			c-11.064-5.078-13.259-3.875-20.451-13.206L291.329,528.45z"/>
		<path fill="none" stroke="#8B6B45" stroke-width="3" stroke-miterlimit="10" d="M304.5,593.001
			c0.606-6.347,1.75-12.501,4.167-15.834"/>
	</g>
	<g id="袖">
		<path fill="#C9CBB7" stroke="#100E06" stroke-width="3" stroke-miterlimit="10" d="M125.641,499.732
			C99.833,505.982,76.833,497.5,55,481.816c-8.5-16-11.333-66,17.167-62.667L105,453.316c9,2,14.36-6.634,29.644-11.5
			C158.141,464.482,150.375,487.649,125.641,499.732z"/>
		<path fill="#B3A779" d="M55.667,480.649c3.25-0.816,4.318-1.815,6.5-5c16.833,12,18.5,17.517,39.167,20.685
			c22.5,0,15-6,22.5-15.685c4.237,0,7.667-4.473,7.667-10c6.833,13.425-1.5,27.552-6.838,28.718
			C91.667,506.534,63.914,489.511,55.667,480.649z"/>
		<path fill="#9B7A3E" stroke="#8F682F" stroke-width="2" stroke-miterlimit="10" d="M55,477.527
			c-9.167-18.5-4.125-57.711,14.5-56.545l1,0.018c3.833,20.816,0.507,45.963-13.66,59.313"/>
		<path fill="#B3A779" d="M90.75,483.25c10.75,4.5,20.75,1,17.933-9.084c0.579-4.229,2.317-10.666-2.318-11.666
			c0,9.027-8.284,16.333-18.521,16.333"/>
	</g>
	<g>
		<path fill="#961F28" stroke="#450B08" stroke-width="3" stroke-miterlimit="10" d="M274.167,542.001
			c-84.384,0-152.667-10.063-152.667-22.5c-7.558,0-16.333,20.166-15,31.048c26.333,26.452,121.333,47.285,171.333,16.952
			c-1.417-13.667-1-18.5-3.666-23.5"/>
		<path fill="none" stroke="#B1474C" stroke-width="4" stroke-miterlimit="10" d="M119.667,527.501
			c30.167,17.666,85.778,33,145.333,18.166"/>
	</g>
	<g id="袄">
		<g>
			<path fill="#3B9549" d="M137.741,439.15l27.461-2.591c1.286,2.003,1.349,2.815,4.656,4.663
				c2.517,32.943,8.245,42.958,13.989,60.622c2.946-6.806,11.021-16.695,19.673-26.958c8.764-10.396,20.494-25.288,23.332-29.519
				c0,0,10-0.954,18.143-2.591l33.68,12.953l-16.84,46.114v42.486c-39.637,10.881-113.471-4.663-140.673-21.243l16.58-61.658v-24.87
				"/>
		</g>
		<g>
			<ellipse fill="#85B498" cx="217.834" cy="478.834" rx="5.5" ry="7.166"/>
			<ellipse fill="#85B498" cx="250.334" cy="486" rx="5.5" ry="7.166"/>
			<ellipse fill="#85B498" cx="199.917" cy="504.668" rx="6.417" ry="8.332"/>
			<ellipse fill="#85B498" cx="235" cy="510.834" rx="5.5" ry="7.166"/>
			<ellipse fill="#85B498" cx="152.667" cy="467" rx="5.5" ry="7.166"/>
			<ellipse fill="#85B498" cx="167" cy="497.501" rx="5.5" ry="7.166"/>
			<ellipse fill="#85B498" cx="134" cy="493.166" rx="5.5" ry="7.166"/>
			<ellipse fill="#85B498" cx="148.667" cy="528" rx="5.5" ry="7.166"/>
			<ellipse fill="#85B498" cx="216.334" cy="537.333" rx="5.5" ry="7.166"/>
		</g>
		<g>
			<linearGradient id="SVGID_10_" gradientUnits="userSpaceOnUse" x1="209.1162" y1="446.4824" x2="188.3916" y2="528.3477">
				<stop  offset="0" style="stop-color:#0C695B"/>
				<stop  offset="0.0272" style="stop-color:#106B5A;stop-opacity:0.981"/>
				<stop  offset="0.2726" style="stop-color:#247D55;stop-opacity:0.8092"/>
				<stop  offset="0.5179" style="stop-color:#318A4F;stop-opacity:0.6375"/>
				<stop  offset="0.7611" style="stop-color:#39924B;stop-opacity:0.4672"/>
				<stop  offset="1" style="stop-color:#3B9549;stop-opacity:0.3"/>
			</linearGradient>
			<path fill="url(#SVGID_10_)" stroke="#040000" stroke-width="3" stroke-miterlimit="10" d="M135.94,439.15l27.461-2.591
				c1.286,2.003,1.349,2.815,4.656,4.663c2.517,32.943,8.245,42.958,13.989,60.622c2.946-6.806,11.021-16.695,19.672-26.958
				c8.764-10.396,20.494-25.288,23.333-29.519c0,0,10-0.954,18.143-2.591l33.679,12.953l-16.84,46.114v42.486
				c-39.637,10.881-113.471-4.663-140.673-21.243l16.58-61.658v-24.87"/>
		</g>
		<g opacity="0.7">
			<path fill="#3C7266" stroke="#152812" stroke-width="2" stroke-miterlimit="10" d="M181.25,503.667
				c-1.261-8.561-2.577-11.495-4.948-19.486c-3.822-12.878-8.245-21.625-8.245-42.958l-6.557-4.169
				c1.198,21.319,4.396,35.109,8.219,47.987c2.293,7.727,4.948,21.959,4.948,32.959"/>
		</g>
		<path opacity="0.4" fill="#3C7266" stroke="#050302" stroke-width="2" stroke-miterlimit="10" d="M168.667,539.102
			c5.667-40.335,35.074-63.936,56.5-94.602l6.945,0.053c-17.166,31.167-48.945,56.047-54.612,96.382"/>
	</g>
	<g>
		<g>
			<path fill="#6D98A6" stroke="#41323C" stroke-miterlimit="10" d="M109,537.332c15.662,17.103,109.917,48.335,166.75,17.668
				v-7.046c-57.916,31.296-151.088,0-166.75-17.103C105.125,534.092,109,537.332,109,537.332z"/>
			<path fill="#6D98A6" stroke="#41323C" stroke-miterlimit="10" d="M211.5,570.25c6.5,46.625,25.375,86.875,67.174,127.875
				c7.021,0,12.701-1.453,12.701-3.25c-34.25-29.25-57.125-51.75-75.041-125"/>
			<path fill="#6D98A6" stroke="#41323C" stroke-miterlimit="10" d="M213.875,570.875c20.166,52.189,62.734,78.197,109.159,93.047
				l10.341-7.422c-45.771-14.071-84.584-33.311-113.5-86.25"/>
			
				<ellipse transform="matrix(0.9535 0.3013 -0.3013 0.9535 180.1413 -38.6174)" fill="#6D98A6" stroke="#41323C" stroke-miterlimit="10" cx="215.25" cy="564.625" rx="5.5" ry="6.875"/>
			<path fill="#6D98A6" stroke="#41323C" stroke-miterlimit="10" d="M148.667,557.861C142.25,588.743,153.625,613,158,619.625
				l9.393-4.953c-4.75-4.963-16.106-26.555-14.313-56.318"/>
			<path fill="#6D98A6" stroke="#41323C" stroke-miterlimit="10" d="M150.375,560.25c16.125,55.625,58.375,83.5,98.875,101.625
				l6.125-9.125c-46.75-15.625-80.5-46.25-99.5-92.5"/>
			
				<ellipse transform="matrix(0.9892 0.1464 -0.1464 0.9892 82.6198 -16.436)" fill="#6D98A6" stroke="#41323C" stroke-miterlimit="10" cx="152.987" cy="553.156" rx="5.084" ry="7.658"/>
		</g>
	</g>
	<g>
		<path fill="#D09F9A" stroke="#6D3E35" stroke-width="3" stroke-miterlimit="10" d="M315.25,578.75c-3.25,12.5-22-5,0-21.419
			c7.639-10.132,21.734-9.378,33.485-0.519c11.752,8.86,15.086,24.254,7.448,34.385c-7.638,10.13-25.284,13.262-35.105,2.302
			c-8.064-8.999-6.722-23.249-1.578-33.249"/>
		<path fill="#C55A3E" d="M350.098,594.929C331.416,606.179,306,590.25,319,565.437c-1.054,15.193,18.746,25.905,32.159,29.813"/>
		<path fill="#B96B48" d="M343.187,555.25c-12-5.734-14.883-5.202-23.937,0c-6.75,8.594-3.428,23.25-13.25,20
			c0,5.38,6.75,10.5,8.25,3.25C316.67,571.793,320.537,548.227,343.187,555.25"/>
		<line fill="none" stroke="#6D3E35" stroke-width="2" stroke-miterlimit="10" x1="320.335" y1="591.5" x2="328.25" y2="587.5"/>
		<line fill="none" stroke="#6D3E35" stroke-width="2" stroke-miterlimit="10" x1="329.837" y1="597.5" x2="334.896" y2="594.5"/>
	</g>
	<g>
		<path fill="#D09F9A" stroke="#6D3E35" stroke-width="3" stroke-miterlimit="10" d="M65.75,463.5
			c-0.53-0.067-10.061-11.403-10.593-11.507c-13.271-2.575-26.907-16.161-26.907-33.618c0-18.157,4.777-32.097,16.168-32.097
			S69.5,400.218,69.5,418.375"/>
		<path fill="#BE4D2E" d="M48,448.063c11.746,0,21.25-13.443,21.25-27.848l1.063,5.91c1.163,16-0.127,28.45-3.5,36.375
			C59.361,456.215,57,451.063,48,448.063z"/>
		<path fill="#8A342B" d="M42.693,409.71c19.307,15.179,4.431,33.228-0.631,25.228"/>
		<path fill="none" stroke="#4A140C" stroke-width="2" stroke-miterlimit="10" d="M46.875,434.063c2.287-4.875,2-8.438,2.287-13.105
			c-16.224-24.457-9.787-32.52,10.204-14.52"/>
		<line fill="none" stroke="#B07268" stroke-width="3" stroke-miterlimit="10" x1="35.24" y1="395" x2="38" y2="400"/>
		<line fill="none" stroke="#B07268" stroke-width="3" stroke-miterlimit="10" x1="30.5" y1="410.75" x2="39.979" y2="428.5"/>
	</g>
</g>
<g id="other">
	<g>
		
			<ellipse transform="matrix(0.9907 0.1364 -0.1364 0.9907 39.6445 -5.9611)" fill="#B65320" stroke="#300B07" stroke-width="3" stroke-miterlimit="10" cx="63.333" cy="286.387" rx="35.428" ry="87.565"/>
		<line fill="none" stroke="#7B1E1E" stroke-width="3" stroke-miterlimit="10" x1="75.273" y1="203.64" x2="50.572" y2="369.662"/>
		
			<ellipse transform="matrix(0.9902 0.14 -0.14 0.9902 40.7454 -6.0544)" fill="none" stroke="#300B07" stroke-miterlimit="10" cx="63.402" cy="286.558" rx="31.604" ry="84.081"/>
	</g>
	<path fill="#A66A3A" stroke="#2F0B07" stroke-width="3" stroke-miterlimit="10" d="M86.333,197.523
		c-0.34,1.051-4.631,2.321-5.682,1.98l-5.378-2.17c-1.051-0.34-2.114-3.359-1.773-4.41L73.833,188
		c0.34-1.051,4.273-3.506,5.324-3.167l7.176,3.333c1.051,0.34,1.791,3.825,1.451,4.876L86.333,197.523z"/>
	<line fill="none" stroke="#600F14" stroke-width="3" stroke-miterlimit="10" x1="49.979" y1="375.618" x2="46.667" y2="396.333"/>
	<line fill="none" stroke="#600F14" stroke-width="3" stroke-miterlimit="10" x1="41.632" y1="448.833" x2="43.187" y2="420.957"/>
	<path fill="#AC2227" stroke="#431116" stroke-width="2" stroke-miterlimit="10" d="M49.162,462.5
		c2.338,20.995,6.505,30.217,24.505,39.3c-9.75,10.028-8.833,23.528-19.5,28.366C46.667,525.495,30.46,498.757,37,462.5"/>
	
		<ellipse fill="#9D5D50" stroke="#431116" stroke-width="2" stroke-miterlimit="10" cx="48.323" cy="456.333" rx="6.667" ry="8.25"/>
	
		<ellipse fill="#9D5D50" stroke="#431116" stroke-width="2" stroke-miterlimit="10" cx="39.583" cy="457.083" rx="6.667" ry="8.25"/>
</g>
</svg>
