<?xml version="1.0" encoding="utf-8"?>
<!-- Generator: Adobe Illustrator 16.0.0, SVG Export Plug-In . SVG Version: 6.00 Build 0)  -->
<!DOCTYPE svg PUBLIC "-//W3C//DTD SVG 1.1//EN" "http://www.w3.org/Graphics/SVG/1.1/DTD/svg11.dtd">
<svg version="1.1" id="图层_1" xmlns="http://www.w3.org/2000/svg" xmlns:xlink="http://www.w3.org/1999/xlink" x="0px" y="0px"
	 width="200px" height="150px" viewBox="0 0 200 150" enable-background="new 0 0 200 150" xml:space="preserve">
<rect x="4.168" y="101.428" fill="#F4ECAD" stroke="#C9A66A" stroke-miterlimit="10" width="186.346" height="41.865"/>
<polygon fill="#E8D589" stroke="#C9A66A" stroke-miterlimit="10" points="163.907,74.016 173.445,81.688 182.859,86.932 
	182.859,136.188 163.785,136.188 "/>
<rect x="164.789" y="89.057" fill="#502928" stroke="#331415" stroke-miterlimit="10" width="20.182" height="2.83"/>
<polyline fill="#1C1106" stroke="#000000" stroke-miterlimit="10" points="164.535,73.112 177.038,83.357 190.393,88.381 
	190.393,90.791 175.014,85.244 164.535,76.908 "/>
<rect x="168.102" y="101.928" fill="#A26123" stroke="#000000" stroke-miterlimit="10" width="11.547" height="22.59"/>
<polygon fill="#E8D589" stroke="#C9A66A" stroke-miterlimit="10" points="29.872,77.342 19.647,84.708 10.795,87.5 10.795,135.168 
	29.872,135.168 "/>
<rect x="9.691" y="89.241" fill="#502928" stroke="#331415" stroke-miterlimit="10" width="20.18" height="2.831"/>
<rect x="35.558" y="54.623" fill="#ECE3C3" stroke="#C9A66A" stroke-miterlimit="10" width="123.818" height="88.879"/>
<rect x="4.269" y="143.596" fill="#C9A66A" stroke="#C9A66A" stroke-miterlimit="10" width="186.124" height="6.404"/>
<rect x="30.4" y="53.864" fill="none" stroke="#000000" stroke-miterlimit="10" width="134.135" height="89.638"/>
<rect x="26.04" y="22.563" fill="#1D1206" stroke="#000000" stroke-miterlimit="10" width="142.71" height="23.726"/>
<path fill="#1D1206" stroke="#000000" stroke-miterlimit="10" d="M167.582,8.801l4.654-0.099l-5.014,13.86L27.84,22.979
	L23.897,7.541h4.904l2.279,6.585c0,0,15.554,4.784,70.638,4.784c47.068,0,62.816-4.966,62.816-4.966L167.582,8.801z"/>
<path fill="none" stroke="#000000" stroke-miterlimit="10" d="M173.872,4.04"/>
<path fill="none" stroke="#000000" stroke-miterlimit="10" d="M173.872,10.773"/>
<polyline fill="#1C1106" stroke="#000000" stroke-miterlimit="10" points="30.125,73.297 17.623,83.543 4.269,88.566 4.269,90.977 
	19.646,85.43 30.125,77.094 "/>
<rect x="28.621" y="46.927" fill="#502928" stroke="#331415" stroke-miterlimit="10" width="137.548" height="6.937"/>
<rect x="30.4" y="54.623" fill="#BC2704" stroke="#514352" stroke-miterlimit="10" width="5.158" height="88.879"/>
<rect x="159.376" y="54.623" fill="#BC2704" stroke="#514352" stroke-miterlimit="10" width="5.159" height="88.879"/>
<rect x="76.722" y="84.17" fill="#BC2704" stroke="#514352" stroke-miterlimit="10" width="5.159" height="59.332"/>
<rect x="113.999" y="85.113" fill="#BC2704" stroke="#514352" stroke-miterlimit="10" width="5.158" height="58.389"/>
<linearGradient id="SVGID_1_" gradientUnits="userSpaceOnUse" x1="302.2813" y1="-158.7827" x2="335.3984" y2="-158.7827" gradientTransform="matrix(1 0 0 -1 -220.9004 -46.5996)">
	<stop  offset="0" style="stop-color:#5E4A1A"/>
	<stop  offset="0.2133" style="stop-color:#3C2B13"/>
	<stop  offset="0.4267" style="stop-color:#24150A"/>
	<stop  offset="0.6332" style="stop-color:#130102"/>
	<stop  offset="0.8283" style="stop-color:#060000"/>
	<stop  offset="1" style="stop-color:#040000"/>
</linearGradient>
<rect x="81.881" y="85.113" fill="#B28C63" stroke="url(#SVGID_1_)" stroke-miterlimit="10" width="32.118" height="54.14"/>
<rect x="48.978" y="47.128" fill="#502928" stroke="#331415" stroke-miterlimit="10" width="3.012" height="10.708"/>
<rect x="80.252" y="47.128" fill="#502928" stroke="#331415" stroke-miterlimit="10" width="3.012" height="10.708"/>
<rect x="111.525" y="47.128" fill="#502928" stroke="#331415" stroke-miterlimit="10" width="3.013" height="10.708"/>
<rect x="142.801" y="47.53" fill="#502928" stroke="#331415" stroke-miterlimit="10" width="3.012" height="10.708"/>
<rect x="28.62" y="80.701" fill="#502928" stroke="#331415" stroke-miterlimit="10" width="137.549" height="3.469"/>
<rect x="37.603" y="65.265" fill="none" stroke="#331415" stroke-miterlimit="10" width="118.072" height="11.245"/>
<rect x="39.309" y="92.977" fill="#502928" stroke="#331415" stroke-miterlimit="10" width="116.366" height="5.707"/>
<rect x="72.542" y="75.241" fill="#A26123" stroke="#000000" stroke-miterlimit="10" width="50.703" height="20.604"/>
<rect x="44.895" y="99.604" fill="#A26123" stroke="#000000" stroke-miterlimit="10" width="31.827" height="43.898"/>
<rect x="119.538" y="99.602" fill="#A26123" stroke="#000000" stroke-miterlimit="10" width="31.827" height="43.9"/>
<rect x="15.012" y="102.111" fill="#A26123" stroke="#000000" stroke-miterlimit="10" width="11.546" height="22.592"/>
<polyline fill="#1C1106" stroke="#000000" stroke-miterlimit="10" points="30.374,54.839 19.028,64.779 5.574,71.205 3.968,88.775 
	17.422,83.956 29.856,73.516 "/>
<polyline fill="#1C1106" stroke="#000000" stroke-miterlimit="10" points="165.014,54.94 176.357,64.879 189.912,71.707 
	190.986,88.081 177.534,83.262 165.102,72.821 "/>
<rect x="74.852" y="146.004" fill="#ECE3C3" stroke="#C9A66A" stroke-miterlimit="10" width="47.791" height="1.809"/>
<rect x="65.815" y="144.6" fill="#ECE3C3" stroke="#C9A66A" stroke-miterlimit="10" width="9.036" height="5.4"/>
<rect x="122.934" y="144.8" fill="#ECE3C3" stroke="#C9A66A" stroke-miterlimit="10" width="9.035" height="5.2"/>
</svg>
